<svg xmlns="http://www.w3.org/2000/svg" width="256" height="256" viewBox="0 0 100 100"><rect width="100" height="100" rx="20" fill="#2be080"></rect><path fill="#000000" d="M82.67 8.05L82.67 8.05Q83.86 5.90 85.29 5.90Q86.72 5.90 86.72 7.22L86.72 7.22Q86.72 7.35 86.72 7.48L86.72 7.48Q84.04 52.18 83.73 89.66L83.73 89.66Q84.30 90.80 83.68 91.95L83.68 91.95Q82.63 94.10 81.22 94.10L81.22 94.10Q79.51 94.10 79.38 91.07L79.38 91.07Q79.33 90.19 79.33 85.49Q79.33 80.78 79.58 72.13Q79.82 63.47 80.15 54.75Q80.48 46.02 80.83 37.34Q81.18 28.66 81.40 20.18L81.40 20.18Q77.05 29.90 66.30 50.35Q55.56 70.81 51.87 78.23L51.87 78.23Q50.86 80.12 49.58 80.12Q48.31 80.12 47.82 78.85L47.82 78.85Q45.54 68.30 40.88 47.43Q36.22 26.56 34.51 18.03L34.51 18.03Q31.56 32.97 25.19 59.25Q18.82 85.53 17.33 92.21L17.33 92.21Q16.45 94.01 14.82 94.01L14.82 94.01Q13.46 94.01 13.28 92.21L13.28 92.21Q16.14 76.52 23.00 48.07Q29.85 19.61 32.44 8.14L32.44 8.14Q32.71 7.26 33.48 6.63Q34.25 5.99 34.90 5.99L34.90 5.99Q36.18 5.99 36.57 7.48L36.57 7.48Q40.31 23.65 44.11 41.98Q47.91 60.31 50.33 70.59L50.33 70.59Q56.35 60.22 61.49 49.98Q66.63 39.74 71.62 29.76Q76.61 19.79 82.67 8.05Z"></path></svg>